<svg width="265" height="276" viewBox="0 0 265 276" fill="none" xmlns="http://www.w3.org/2000/svg">
<path fill-rule="evenodd" clip-rule="evenodd" d="M132.5 251.812C192.33 251.812 240.832 203.465 240.832 143.826C240.832 84.1864 192.33 35.8392 132.5 35.8392C72.6699 35.8392 24.168 84.1864 24.168 143.826C24.168 203.465 72.6699 251.812 132.5 251.812Z" stroke="#89ACCC" stroke-width="0.305962" stroke-dasharray="1.84 1.84"/>
<path fill-rule="evenodd" clip-rule="evenodd" d="M132.5 274.718C205.021 274.718 263.812 216.116 263.812 143.826C263.812 71.5356 205.021 12.933 132.5 12.933C59.9786 12.933 1.18835 71.5356 1.18835 143.826C1.18835 216.116 59.9786 274.718 132.5 274.718Z" stroke="#89ACCC" stroke-width="0.305962" stroke-dasharray="1.84 1.84"/>
<path opacity="0.5" d="M71.9521 138C71.9521 114.949 71.9521 103.421 79.1212 96.2631C86.2842 89.0991 97.8209 89.0991 120.888 89.0991H145.356C168.423 89.0991 179.96 89.0991 187.123 96.2631C194.292 103.421 194.292 114.949 194.292 138C194.292 161.051 194.292 172.579 187.123 179.737C179.96 186.901 168.423 186.901 145.356 186.901H120.888C97.8209 186.901 86.2842 186.901 79.1212 179.737C71.9521 172.579 71.9521 161.051 71.9521 138Z" stroke="#89ACCC" stroke-width="2.5"/>
<path d="M133.122 125.775V150.225M122.527 131.887L143.716 144.113M143.716 131.887L122.521 144.113M100.898 125.775V150.225M90.303 131.887L111.492 144.113M111.492 131.887L90.303 144.113M165.346 125.775V150.225M154.751 131.887L175.941 144.113M175.941 131.887L154.745 144.113" stroke="#89ACCC" stroke-width="2.5" stroke-linecap="round"/>
</svg>
